<svg 
  viewBox="0 0 24 24"
  fill="currentColor"
  xmlns="http://www.w3.org/2000/svg"
  stroke="none"
  stroke-width="0"
  width="100%"
  height="100%"
  role="img"
  aria-label="Control icon"
  focusable="false"
  aria-hidden="true"
>
  <!-- Main control pad circle -->
  <path d="M12 2C6.48 2 2 6.48 2 12C2 17.52 6.48 22 12 22C17.52 22 22 17.52 22 12C22 6.48 17.52 2 12 2ZM12 20C7.58 20 4 16.42 4 12C4 7.58 7.58 4 12 4C16.42 4 20 7.58 20 12C20 16.42 16.42 20 12 20Z" />
  
  <!-- Directional arrows -->
  <path d="M12 7L12 11L8 11L12 7Z" /> <!-- Up arrow -->
  <path d="M12 17L12 13L16 13L12 17Z" /> <!-- Down arrow -->
  <path d="M7 12L11 12L11 16L7 12Z" /> <!-- Left arrow -->
  <path d="M17 12L13 12L13 8L17 12Z" /> <!-- Right arrow -->
  
  <!-- Center dot -->
  <circle cx="12" cy="12" r="2" />
</svg>