<svg 
  viewBox="0 0 24 24" 
  fill="currentColor" 
  xmlns="http://www.w3.org/2000/svg" 
  role="img" 
  aria-hidden="true" 
  focusable="false" 
  aria-label="Generate video"
>
  <path 
    d="M19 4H5C3.89543 4 3 4.89543 3 6V18C3 19.1046 3.89543 20 5 20H19C20.1046 20 21 19.1046 21 18V6C21 4.89543 20.1046 4 19 4Z" 
    fill="currentColor" 
    fillRule="evenodd" 
    clipRule="evenodd"
  />
  <path 
    d="M10 8.5C10 8.22386 10.2239 8 10.5 8H13.5C13.7761 8 14 8.22386 14 8.5V15.5C14 15.7761 13.7761 16 13.5 16H10.5C10.2239 16 10 15.7761 10 15.5V8.5Z" 
    fill="currentColor" 
    opacity="0.5"
  />
  <path 
    d="M16 8.5C16 8.22386 16.2239 8 16.5 8H17.5C17.7761 8 18 8.22386 18 8.5V15.5C18 15.7761 17.7761 16 17.5 16H16.5C16.2239 16 16 15.7761 16 15.5V8.5Z" 
    fill="currentColor" 
    opacity="0.5"
  />
  <path 
    d="M6 8.5C6 8.22386 6.22386 8 6.5 8H7.5C7.77614 8 8 8.22386 8 8.5V15.5C8 15.7761 7.77614 16 7.5 16H6.5C6.22386 16 6 15.7761 6 15.5V8.5Z" 
    fill="currentColor" 
    opacity="0.5"
  />
</svg>