<svg 
  viewBox="0 0 24 24" 
  fill="currentColor" 
  xmlns="http://www.w3.org/2000/svg"
  role="img"
  aria-label="Settings"
>
  <path
    fill-rule="evenodd"
    clip-rule="evenodd"
    d="M11.4 3a.6.6 0 00-.6.6v.8a1 1 0 01-.757.97 6.97 6.97 0 00-1.139.4 1 1 0 01-1.21-.247l-.566-.566a.6.6 0 00-.848 0L5.143 6.084a.6.6 0 000 .848l.566.566a1 1 0 01.247 1.21 6.97 6.97 0 00-.4 1.139 1 1 0 01-.97.757h-.8a.6.6 0 00-.6.6v1.2a.6.6 0 00.6.6h.8a1 1 0 01.97.757c.107.397.238.778.4 1.139a1 1 0 01-.247 1.21l-.566.566a.6.6 0 000 .848l.848.848a.6.6 0 00.848 0l.566-.566a1 1 0 011.21-.247c.361.162.742.293 1.139.4a1 1 0 01.757.97v.8a.6.6 0 00.6.6h1.2a.6.6 0 00.6-.6v-.8a1 1 0 01.757-.97 6.97 6.97 0 001.139-.4 1 1 0 011.21.247l.566.566a.6.6 0 00.848 0l.848-.848a.6.6 0 000-.848l-.566-.566a1 1 0 01-.247-1.21c.162-.361.293-.742.4-1.139a1 1 0 01.97-.757h.8a.6.6 0 00.6-.6v-1.2a.6.6 0 00-.6-.6h-.8a1 1 0 01-.97-.757 6.97 6.97 0 00-.4-1.139 1 1 0 01.247-1.21l.566-.566a.6.6 0 000-.848l-.848-.848a.6.6 0 00-.848 0l-.566.566a1 1 0 01-1.21.247 6.97 6.97 0 00-1.139-.4 1 1 0 01-.757-.97v-.8a.6.6 0 00-.6-.6h-1.2zM12 15a3 3 0 100-6 3 3 0 000 6z"
  />
</svg>